<svg xmlns="http://www.w3.org/2000/svg" viewBox="0 0 512 512" style="height: 512px; width: 512px;"><defs><radialGradient id="delapouite-mute-gradient-0"><stop offset="0%" stop-color="#ff0000" stop-opacity="1"></stop><stop offset="100%" stop-color="#000" stop-opacity="1"></stop></radialGradient></defs><path d="M0 0h512v512H0z" fill="url(#pattern)"></path><svg><defs><filter id="b" x="-.024" width="1.048" y="-.024" height="1.048" color-interpolation-filters="sRGB"><feGaussianBlur stdDeviation="4.823"></feGaussianBlur></filter><filter id="a" x="-.012" width="1.024" y="-.012" height="1.024" color-interpolation-filters="sRGB"><feGaussianBlur stdDeviation="2.55"></feGaussianBlur></filter><filter id="c" x="-.112" width="1.225" y="-.077" height="1.153" color-interpolation-filters="sRGB"><feGaussianBlur stdDeviation="15.63"></feGaussianBlur></filter><filter id="e" x="-.237" width="1.475" y="-.249" height="1.497" color-interpolation-filters="sRGB"><feGaussianBlur stdDeviation="18.7"></feGaussianBlur></filter><filter id="d" x="-.213" width="1.426" y="-.151" height="1.303" color-interpolation-filters="sRGB"><feGaussianBlur stdDeviation="18.7"></feGaussianBlur></filter></defs><path d="M196.6 1.207c-2.5 11.323-4.8 22.703-10.2 33.383-7-10.68-12.6-20.91-16.7-31.988L2.494 4.338C13 104.9 10.86 175.3 1.979 278.3L15.4 295.5l-9.494 6.3L2.6 462.7l1.019 45.9 112.681 3.1c3.6-16.1 6.5-32.5 13.2-47.3 4.5 14.4 5.7 29.4 7 44.4l160 .3c.8-6.1.7-8.1 2.3-14.4 5.1 4.5 7.8 9.5 10.6 14.5.8-10.1 3.9-19.8 7-29.5 4.8 9.2 6.7 19.4 8.8 29.5l185.2.4-4.6-78.2-21.4-8.2 21.3-4.9 5.8-395.47c-7-6.73-13.3-13.744-18-21.465l-15.1.114-2.1 20.321-1.4 47.23.8 84.87-8.6-97.14c9.3-16.86 2.2-39.69 5.7-55.239-92.1 1.696-184.1.685-276.2-.314z" overflow="visible" color="#000" fill="#ebc893" fill-rule="evenodd" stroke="#e0aa58" enable-background="accumulate"></path><path d="M196.6 1.203c-2.5 11.327-4.8 22.707-10.2 33.387-7-10.68-12.6-20.91-16.7-31.99L2.494 4.336C13 104.9 10.86 175.3 1.979 278.3L15.4 295.5l-9.494 6.3L2.6 462.7l1.019 45.9 112.681 3.1c.5-2.1-7.9-2.3-7.4-4.5L5.244 504.5l-.914-47.3 4.63-153.7 12.42-9-13.093-16.8C16.95 177.3 16.36 104 6.113 5.992l162.687.164c4 10.804 10.3 24.254 17.1 34.664 5.3-10.41 9.5-25.97 12-37.02 89.8.974 173.8 3.521 263.6 1.867 4.6 1.226 10.6.431 11.3-4.149-92.1 1.696-184.1.684-276.2-.315zm296.9.158l-15.1.116-.6 6.277 13.5-2.557c4.6 7.533 9.7 12.383 16.6 18.943l-4.6 389.06-19.9 9.9 4.1-.6 18.2-4.2 5.8-395.47c-7-6.73-13.3-13.748-18-21.469zm9.6 435.739l3.5 69.7-177.7.1c.4 2.1-4.1.2-3.7 2.3l185.2.4-4.6-78.2zm-370 25.1c-1 2.2-2.9.4-3.7 2.6 4.2 14 5.8 29.5 7.1 44l158 .3c1.9-5 .8-9.7 4.3-14.4 5.1 4.5 7.8 9.5 10.6 14.5.8-10.1 3.9-19.8 7-29.5 1.8 3.4 3.2 7 4.3 10.6-1.4-5.6-2.4-8.3-5.1-13.4-3 9.4-6.7 16.2-7.5 26-2.7-4.9-5.4-9.7-10.4-14.1-3.4 4.6-6.2 9.1-8 14l-147.6 3.4c-3.4-14.6-7.1-30.3-9-44z" overflow="visible" color="#000" opacity=".527" fill="#c87137" fill-rule="evenodd" filter="url(#a)" enable-background="accumulate"></path><path d="M200.1 16.1c-2.3 10.67-10.5 21.38-15.6 31.44-6.6-10.06-13.9-19.69-17.7-30.12L17.34 19.05C24.61 113.6 7.605 179.3 16.85 277l18.26 20.1L10.34 309l7.1 141.6.96 43.3 90.2 3.4c3.4-15.2 15-35.6 21.3-49.6 4.3 13.6 15.4 36.7 16.6 50.9l45.1.8 13.8-18.7 14.4 22.2 68.7-8.6c1.8-4.7 4.5-9.1 7.8-13.5 4.8 4.2 7.4 8.9 10 13.6.8-9.5 7.7-19.6 10.6-28.7 4.5 8.6 19.9 28.9 33.1 33.9l114.6 5.6 22.3-14.7 19.4 14.7-14.5-67.6-34.6-14.2 37.5-15.1 2.1-96.9-14.5-21.9 15.2-13.4 5.1-239.63c-5.2-21.09-11.8-24.89-16.9-20.22l-4.2 2.11 2 19.14.7 44.47-7.1 124.23-18.3-137.78c8.8-15.88-3.9-35.38-.6-50.02-67.1 1.24-140.4-13.332-202.8-3.28-14 2.25-23.7 21.31-36.9 24.48-4.3 1.03-13.9-23.45-18.4-23.5z" overflow="visible" enable-background="accumulate" filter="url(#b)" fill-rule="evenodd" fill="#f6e7d0" color="#000"></path><path d="M354 27.39l-70.3 96.91 46.4 97.6-56.2 43.6 33 74.4-30.2 63.2 69.8 48.8 31.6 29.5 31.6-13.3L365.9 335l55.5-36.5 2.1-146.1-56.9-101.83zM116.6 55.48L89.9 123.6s33.7 65.3 35.8 68.8c2.1 3.6-7 118-7 118l42.8 73.8s9.9-82.9 7.1-83.6c-2.8-.7-29.5-42.1-29.5-42.1l23.8-84.3-36.5-37.2z" color="#000" overflow="visible" fill="#f2dbb9" fill-rule="evenodd" filter="url(#c)" enable-background="accumulate"></path><path d="M39.33 172.1l-5.62 108.1L74.45 328 42.84 464.9l96.96-39.3 30.2 42.9 74.4-38.7-80.8-169.9-60.4-16.9z" color="#000" overflow="visible" fill="#eed3a4" fill-rule="evenodd" enable-background="accumulate" filter="url(#d)"></path><path d="M266.9 66.72L324.5 191 434 221.2l21.8-111.6-41.4-68.86z" color="#000" overflow="visible" fill="#eed3a4" fill-rule="evenodd" enable-background="accumulate" filter="url(#e)"></path></svg><g class="" transform="translate(0,0)" style=""><path d="M25.78 18v140.684c15.804 55.05 35.45 105.15 69.534 141.127 29.986 31.652 71.13 53.17 133.186 58.106-1.465-21.612-2.782-44.32-3.77-68.687-8.28 1.9-18.098 4.388-30.546 7.5l-4.368-17.46c13.796-3.45 24.812-6.15 34.26-8.112-.565-17.64-.957-36.102-1.068-55.773-24.658-2.122-51.63-6.376-86.008-12.608V208h-18v-32h18v5.81c39.205-4.887 66.136-8.12 89.102-9.67 3.264-9.885 9.035-18.425 17.01-24.765 11.33-9.01 26.565-13.45 44.077-12.875 2.5.082 5.05.267 7.64.555l7.383.822.594 7.402c.802 9.988 1.367 20.126 1.843 30.402 18.964 1.793 41.274 4.504 70.35 8.13V176h18v32h-18v-5.066c-26.533 5.123-48.64 8.784-68.684 11.082.872 20.248 2.045 41.043 4.444 62.418 3.592.882 7.386 1.826 11.424 2.836l-4.368 17.46c-1.735-.433-2.93-.728-4.568-1.138 2.71 18.324 6.478 37.062 11.902 56.242 40.524-9.445 70.1-27.748 93.098-52.023 34.084-35.977 53.73-86.076 69.533-141.126V18H325.4c2.027 10.094 3.343 20.117 3.596 29.764l-17.992.472c-.247-9.402-1.785-19.666-4.14-30.236H204.995C202.512 29.056 201 39.368 201 48h-18c0-9.32 1.253-19.484 3.355-30zm162.08 49.887c3.933-.04 7.64.68 10.935 2.092 7.532 3.227 12.568 8.657 17.568 13.657C226.363 93.637 235 103 256 103s29.637-9.363 39.637-19.363c5-5 10.036-10.43 17.568-13.658 7.532-3.23 17.21-2.836 26.82 1.97l-.004.007c5.888 2.693 10.056 8.65 10.056 15.467 0 9.282-7.718 17-17 17-8.693 0-16.01-6.77-16.906-15.252-2.246 1.778-4.84 4.224-7.807 7.19C298.363 106.363 283 121 256 121s-42.363-14.637-52.363-24.637c-2.968-2.967-5.56-5.413-7.807-7.19-.895 8.482-8.214 15.25-16.906 15.25-9.282 0-17-7.717-17-17 0-6.815 4.168-12.773 10.055-15.466l-.005-.008c4.805-2.403 9.627-3.703 14.19-4 .57-.036 1.135-.057 1.696-.063zm84.93 85.547c.27 22.19-.193 39.466 2.6 48.912 1.55 5.247 3.35 7.76 6.753 9.734 1.467.852 3.46 1.59 6.01 2.13-.92-21.412-1.5-41.967-2.825-61.53-4.22-.41-8.644.04-12.537.754zm-18.022 7.685c-.15.115-.307.227-.455.345C245.813 168.223 241 178.245 241 192v.045c-.466 92.33 4.96 159.972 9.81 223.818 20.016 4.087 36.912 7.04 51.19 9.352 13.76 2.227 24.982 3.81 34.55 5.326-35.895-71.67-44.2-138.057-47.505-197.91-6.045-.726-11.33-2.307-15.94-4.984-7.74-4.493-12.573-12.06-14.978-20.2-3.815-12.905-3.428-28.14-3.36-46.327zm-117.49 258.24c-6.108 7.06-11.408 19.73-15.366 34.786-3.253 12.375-5.668 26.162-7.873 39.854h33.308c-.47-20.78 5.12-37.688 24.004-39 71.475 12.15 148.648 12.283 207.306 30.576-.96-4.436-1.874-8.294-2.773-11.465-2.262-9.82-7.972-17.038-15.862-19.99-10.02-3.684-29.098-5.988-60.898-11.136-31.8-5.147-76.5-13.428-139.68-30.298-8.803-2.765-17.193 1.01-22.166 6.673zm-33.423 32.806c-4.966 1.588-10.514 4.09-15.714 7.324-12.333 7.672-21.705 18.87-22.072 30.05l.99 4.46h28.637c2.237-13.862 4.762-28.343 8.16-41.834zM162.328 494h190.93c-29.295-9.362-83.06-14.25-177.9-21.023-10.978.135-13.992 15.12-13.03 21.023z" fill="#fff" fill-opacity="1"></path></g></svg>